<?xml version="1.0" encoding="utf-8"?>
<!-- Generator: Adobe Illustrator 26.2.1, SVG Export Plug-In . SVG Version: 6.00 Build 0)  -->
<svg version="1.1" id="Layer_1" xmlns="http://www.w3.org/2000/svg" xmlns:xlink="http://www.w3.org/1999/xlink" x="0px" y="0px"
	 viewBox="0 0 512 512" style="enable-background:new 0 0 512 512;" xml:space="preserve">
<style type="text/css">
	.st0{fill:#FFFFFF;}
</style>
<g>
	<path class="st0" d="M408.3,233.3c-0.9,0.6-2.5,0.4-3.7,0.1c-10.4-2.5-16,1.5-16.4,12.1c0,0.6-0.3,1.2-0.4,1.7
		c-1.8,0.3-3.5,0.4-5,0.9c-13.7,4.3-26.4,3.2-39.7-3.3c-10.9-5.3-23.5-6.9-36.4-10.5c0.7-0.3,1.4-0.4,1.9-0.7
		c15-10.8,26.2-24.2,29.9-43c0.2-1.2,2.1-2.7,3.4-3.1c13.4-3.9,21.3-13,24.5-26.2c3.9-16.1-5.3-31.3-20.6-34.6
		c-2.5-0.5-5-0.6-7.5-0.9c-3.9-40-24.5-65.7-63.6-75.7c0.6-2.3,1.2-4.3,1.6-6.4c1.3-7.3,1.1-14.5-2.5-21.2
		c-4.6-8.7-14.4-13.7-23.9-12.2c-9.2,1.4-16.6,8.7-18.2,17.8c-1.1,6.2,2.2,12.7,7.9,15.8c5.7,3.1,12.3,2.4,16.6-1.8
		c2.6-2.6,3.6-5.5,1.1-8.6c-2.3-2.8-5.1-2.6-8.2-0.8c-1.2,0.7-4.1,1-4.4,0.4c-0.8-1.4-1.3-3.6-0.8-5.1c1.3-3.8,4.5-5.8,8.5-6.1
		c4.8-0.3,9.1,1.6,10.6,6c1.5,4.4,2,9.5,1.5,14.1c-0.8,6.6-1.7,6.8-8.5,6.6c-46.8-1.2-80.2,27.6-85.2,73.7c-0.3,3.2-1.6,3.9-4.5,4.1
		c-12.1,0.9-21.4,8.8-24.2,20.3c-4.3,17.2,6.4,35.9,23.5,40.6c2.9,0.8,4.2,2,4.8,5c2,10.7,7,20,14.3,28.1c0.9,1,1.8,2.1,2.4,2.9
		c-9.3,0-18.3,0.2-27.3-0.1c-3-0.1-6.3-1.3-9-2.7c-8.2-4.4-16.2-9.3-24.4-13.7c-2.5-1.4-3.9-2.6-3.9-5.7c-0.1-5.3-3.2-10-7.9-10.2
		c-8.1-0.3-16.7-0.9-24.2,1.5c-14.2,4.5-16.6,23.6-5,33c1.4,1.1,2.8,2.2,3.9,3.5c4.3,5.2,8.2,10.8,12.8,15.7
		c17,18,35.1,34.8,59.2,43.2c5.9,2,11.7,4.1,17.8,6.3c-0.4,1.5-0.7,2.8-1,4c-3.5,12.2-6.8,24.5-10.5,36.7c-0.7,2.4-2.6,4.7-4.5,6.3
		c-7.6,6.7-16.1,12.5-23.2,19.7c-19.6,20.1-23.1,41.9-11.3,67.4c9.5,20.5,24,37.3,39.8,53.2c2.2,2.2,3.8,5.5,4.4,8.6
		c1.8,8,7.9,13.7,14.9,12.1c16.6-3.9,32-16.8,19.6-39.1c-1.7-3.1-3-6.8-3.4-10.4c-1.2-9.8-1.9-19.8-2.7-28.9
		c39.6,21.3,78.4,20.5,115.9-7.8c-1.4,4-2.9,8-4.8,11.8c-7.7,14.8-3.8,27.1,11,34.7c1.3,0.7,2.6,1.2,4,1.8
		c10.6,4.2,18.1-0.2,20.2-11.3c0.5-2.5,1.8-5.1,3.4-7.1c8.8-11.1,18.3-21.7,26.7-33.1c8.5-11.6,15.6-24.1,19.3-38.2
		c6-23.2-7.7-44.6-31.4-48.2c-8.7-1.3-17.7-1.3-26.5-2.1c-1.6-0.1-3.9-1.1-4.4-2.2c-1.9-4.4-3.1-9.1-4.6-13.8
		c0.7-0.2,1.2-0.4,1.6-0.4c1.6,0.1,3.2,0.3,4.8,0.5c21,2.2,41,0.2,57.9-14.2c3.1-2.6,6.4-5,9.5-7.4c5.9-4.7,11.7-9.5,17.8-14
		c5.5-4.1,9.8-8.8,11.2-15.7C436.3,241.6,420.2,226.1,408.3,233.3z M355.1,149.3c2.7,10.4-3.5,21.9-14.6,26.3c0-4.6-0.3-9,0.2-13.4
		c0.1-1.1,2.2-2.7,3.6-2.9c3.9-0.6,6.6-2.1,6.3-6.4c-0.3-4.6-3.6-5.6-7.6-5.4c-0.9,0-1.9,0.1-3.6,0.2c-0.2-3.4-0.5-6.4-0.7-9.4
		C346.6,137.2,353.1,141.6,355.1,149.3z M169.4,147.6c-1.9,0-3.6,0-5.3,0c-3.6,0.1-5.8,2.1-6,5.6c-0.1,3.3,1.9,5.7,5.2,5.8
		c4.5,0.2,5.4,2.5,5.1,6.3c-0.2,3.2,0,6.4,0,9.6c-7.4,0.5-16.6-12.3-15.2-22.8c1.2-9.4,7.9-14.9,17.1-13.8
		C170,141.2,169.7,144.2,169.4,147.6z M180.2,174.8c0.3-17.6,1.5-35.1,2.5-52.6c0.8-14.5,6.2-27.3,15.5-38.3
		c13.7-16.1,31.6-22.9,52.2-23.7c0.3,0.4,0.6,0.8,1,1.2c-1,0.7-2.8,1.3-3,2.1c-0.4,2.3-1,5.5,0.2,6.9c1.2,1.4,5,2.4,6.6,1.5
		c3.7-2,7.1-5,10.1-8.1c2.1-2.1,3.9-2.8,6.8-2.2c31.5,6.1,53.6,32.6,54.3,64.6c0.3,12.4,1.8,24.8,2.2,37.2
		c0.3,7.1,0.1,14.2-0.9,21.2c-3,22.5-17.5,36.4-36.8,45.8c-35.4,17.2-79.4,7.1-101.1-22.8C182.7,197.8,180,186.5,180.2,174.8z
		 M193.1,405.2c-7.6,1.5-10.6,7.2-6.9,13.9c3.8,7,5.5,14.3,5.7,22.2c0.3,10.3,1.3,20.3,6.8,29.8c5.2,9.1,0.1,16.2-12.5,19
		c-0.3-0.3-0.9-0.7-0.9-1.1c-0.3-9.1-6.5-14.5-12.3-20.4c-13.8-13.9-25.9-29.1-34.1-47.1c-8.9-19.4-6-37,8.9-51.9
		c8.2-8.1,17.5-15.2,26.9-22c7.1-5.2,14.9-4.3,22.1,0.8c12.5,8.7,21.4,31.7,18.1,46.6c-0.9,3.8-3.3,6.3-7,7.2
		C202.9,403.3,198,404.2,193.1,405.2z M210.4,413.9c1.4-0.7,2.6-1.3,3.9-1.8c7-3.2,11.3-8.8,12.1-16.3c2.1-19.6-3.2-37.1-16.9-51.6
		c-7.7-8.2-17.2-12.3-29-12.5c1.3-0.6,2.6-1.5,4-1.9c18.6-4.4,37.5-6.2,56.6-6.7c22.9-0.6,45.8-0.1,68.9,4.6
		c-21.8,5.4-30.4,20.7-31.2,41.4c-0.7,18.5,6.1,33.3,23.3,42.2C281.5,428.7,237.6,432.2,210.4,413.9z M366.6,337.8
		c15.9,3.5,24.3,18.4,19.1,34.3c-2.9,8.9-6.9,17.9-12.2,25.6c-9.7,14-21,26.9-31.3,40.5c-2.4,3.2-3.8,7.2-5.5,10.9
		c-0.6,1.4-0.7,3-1,4.5c-13.6-1.7-18.5-10.3-12.2-21.3c4.2-7.4,5.6-15.4,6.6-23.5c1.4-11.8,4.2-23.1,10.8-33.2c3-4.7,2.6-9.9-0.7-14
		c-3.1-3.9-7.6-5-10.5-2.6c-3.2,2.6-2.8,5.9,0.4,9.3c-4.1,10.7-7.9,20.8-12.1,31.6c-8.8,2.5-15.8,0.1-21.6-8.1
		c-8.3-11.8-8.3-31.9,0.7-43.2c2.5-3.1,6.3-5.8,10-7.1C326.5,334.5,346.5,333.3,366.6,337.8z M421.3,255.7c-1.5,2.8-4.1,5.2-6.6,7.4
		c-3.3,2.8-6.9,5.2-10.3,7.9c-7.9,6.1-15.7,12.4-23.7,18.3c-13,9.6-28.1,7.9-42.9,7.1c-1.1-0.1-2.2-0.3-3.4-0.5
		c-9.1-1.1-12.7-5.1-13-14.4c-0.1-2.7,0.2-5.5,0.2-8.2c0-3.4-1.7-5.6-5.1-5.9c-3.7-0.3-6.3,1.8-6.2,5.3c0.1,6.2,0.1,12.6,1.7,18.5
		c2.4,8.7,6.1,16.9,9.5,26.1c-45.8-8.4-91-8-136.9,0.1c1.6-5.5,3-10.3,4.6-15.1c2.3-6.9,4.5-13.8,7.1-20.5c2.5-6.5,3.3-13,2.5-19.9
		c-0.4-3.9-1.9-6.6-6.1-6.6c-3.6,0-5.3,3-5.6,7.6c-0.4,6.4-1.5,12.9-2.3,20c-15.6-4.3-29.4-9.1-41.5-17.5
		c-14.9-10.4-27.7-23.1-39.5-36.9c-3.8-4.5-7.7-8.8-11.7-13.2c-2.6-2.9-2.7-7.2,0-10.6c2.3-2.9,4.9-3,8.1-1c4.2,2.6,4.5,2.4,12-2.6
		c-2.3,10.3,4.2,13.2,10.9,16.5c7.2,3.5,14.2,7.6,20.9,12c5.4,3.5,10.9,4.9,17.3,5.2c13.5,0.6,27,1.7,40.5,3
		c3.8,0.4,7.6,1.6,11.1,3.2c22,10.1,44.4,12.3,67.9,5.9c11.7-3.2,23.4-0.3,35,1.9c13.2,2.4,25.8,6.8,37.9,12.7c4,1.9,9.3,2,13.9,1.5
		c7.5-0.7,14.9-2.8,22.3-3.9c8.3-1.2,10.7-3.9,10.2-12.5c-0.1-0.9,0.1-1.8,0.2-3.5c1.7,1.3,2.7,2.5,3.9,2.8c2,0.4,4.5,0.9,6.1,0.1
		c2.8-1.5,5.1-3.9,8.1-1C421.3,247.8,423.4,251.6,421.3,255.7z"/>
	<path class="st0" d="M346.3,93.9c9.8-0.5,18.5-4.3,25.3-11.5c7.1-7.5,6.4-19.4-1-26.5c-7.2-7-19-7.4-26.3-0.5
		c-7,6.7-10.4,15.3-11.3,23.1C333,88.8,338.1,94.3,346.3,93.9z M344.7,78.9c2.1-5.1,4.4-10.3,7.6-14.6c1.2-1.6,5.8-2,8.2-1.1
		c2.2,0.8,3.5,3.9,5.4,6.3c-1.6,2.6-2.3,5.1-4,6.2c-4.3,2.6-8.9,4.8-13.6,6.8C345.5,83.5,343.5,81.7,344.7,78.9z"/>
	<path class="st0" d="M368.5,95.1c-5.8,0.7-11.9,3-16.8,6.2c-6.2,4.1-6.2,12.2,0.1,16.2c4.9,3.2,11,5.4,16.8,6.1
		c7.6,0.9,13.9-6.3,14-14.1C382.7,101.5,376.3,94.1,368.5,95.1z M367.9,112c-2.4-0.1-4.7-1.1-7.1-1.7c0-0.6,0-1.2,0.1-1.9
		c2.4-0.6,4.7-1.6,7.1-1.7c1,0,2,1.7,3.1,2.7C370,110.3,368.9,112.1,367.9,112z"/>
	<path class="st0" d="M224.4,198c1.9,9.5,10.7,14.9,21.5,12.5c5.8-1.3,11.3-1.2,17.1,0c10.8,2.3,19.7-3.2,21.5-12.6
		c1.8-9.4-4.3-18-14.8-20.3c-5-1.1-10.2-1.5-15.3-2.3c-5.2,0.7-10.3,1.2-15.3,2.3C228.5,180,222.5,188.5,224.4,198z M240.5,189.4
		c4.5-1.1,9.1-1.6,13.7-2.4c4.6,0.7,9.1,1.2,13.5,2.2c3.4,0.7,6.2,2.7,5.2,6.7c-1,3.7-4.3,4.2-7.4,3.2c-7.5-2.2-14.8-2.1-22.3,0.1
		c-3,0.9-6,0.4-7.1-3.1C234.9,192.3,237.4,190.2,240.5,189.4z"/>
	<path class="st0" d="M214.1,149.5c2.5-0.2,5.6,0.9,7.6,2.5c3,2.3,5.6,3.4,8.6,0.8c3-2.6,2.5-5.7,0.2-8.6c-3.6-4.8-8.8-6.3-14.8-7
		c-1.1,0.2-2.5,0.4-3.9,0.7c-3.8,0.9-6.8,2.8-6,7.2C206.8,149.6,210.1,149.7,214.1,149.5z"/>
	<path class="st0" d="M277.5,145.2c-1.7,2.8-1.6,6.1,1.3,7.6c1.8,1,5.6,1.1,6.8-0.2c3.3-3.3,6.5-3.9,10.9-3.3c1.9,0.2,5.5-2,6-3.8
		c0.5-1.8-1.3-5-3-6.6c-1.6-1.4-4.5-1.4-6.1-1.9C286.6,137.9,280.9,139.5,277.5,145.2z"/>
	<path class="st0" d="M252.7,169.9c1.3,0.2,2.7,0,4,0.3c4.9,1.2,8.7-2.5,7.5-7.4c-1-3.9-4.8-6.7-10.2-7.9c-2.8,1.9-6.2,3.3-8,5.8
		c-1.2,1.7-1,5.5,0.2,7.4C246.9,169.6,250.3,169.5,252.7,169.9z"/>
	<path class="st0" d="M229.2,124c0.9-0.3,1.9-0.4,2.8-0.5c3.9-0.2,6.2-2.2,6-6c-0.2-4.2-3.2-5.6-7.7-5.7c-1.1,0.2-2.8,0.5-4.5,1.1
		c-3.4,1.2-5.5,3.6-4.3,7.4C222.7,124,225.5,125,229.2,124z"/>
	<path class="st0" d="M277.2,123.5c0.9,0,1.9,0.3,2.8,0.6c3.5,0.9,6.2-0.4,7.3-3.7c1.1-3.4-0.5-6-3.8-7.3c-1.8-0.7-3.7-1-4.8-1.3
		c-4.5,0.1-7.7,1.4-7.9,5.6C270.6,121.6,273.1,123.5,277.2,123.5z"/>
</g>
</svg>
