<?xml version="1.0" encoding="utf-8"?>
<!-- Generator: Adobe Illustrator 26.2.1, SVG Export Plug-In . SVG Version: 6.00 Build 0)  -->
<svg version="1.1" id="Layer_1" xmlns="http://www.w3.org/2000/svg" xmlns:xlink="http://www.w3.org/1999/xlink" x="0px" y="0px"
	 viewBox="0 0 512 512" style="enable-background:new 0 0 512 512;" xml:space="preserve">
<style type="text/css">
	.st0{fill:#FFFFFF;}
</style>
<g>
	<path class="st0" d="M252.2,4c8.2,1.3,16.5,2.6,24.7,3.9c0.5,0.1,1,0.1,1.5,0.2c7.3,1.6,10.2,4.6,9.3,9.6
		c-0.9,4.9-4.9,6.4-12.3,4.9c-32.2-6.5-64-5.8-94.5,7.8c-37.1,16.5-52.8,48.3-50.2,86.9c1,15.2,5.6,29.2,12.7,42.5
		c6.4,12,13.2,23.7,20.3,36.4c6.5-4.7,13.1-9.3,19.4-14.2c0.9-0.7,0.8-3,0.6-4.6c-0.8-7.4-3.2-15-2.3-22.2
		c2.9-22.5,26.3-32.9,45.7-20.9c0.6,0.3,1.1,0.6,2,1.2c12.2-13.8,21.5-29.2,26.9-46.8c2.1-6.8,3-7.6,10.3-8.1
		c12.2-0.9,24.1-2.9,35.1-8.7c10.1-5.3,17.3-13,19.1-24.6c0.3-1.8-0.7-4.6-2.1-5.6c-4.4-3.3-9.3-6.2-14-9c-4.8-2.8-6.5-7-4.2-10.9
		c2.1-3.8,6.3-4.5,11.1-2.1c34.9,17.2,53.4,52,48.9,92.3c-1,8.8-2.4,17.5-3.9,26.2c-1.7,9.9,0.6,18.5,7.5,25.9
		c1.8,1.9,3.5,3.9,5.2,5.9c15.4,16.7,3.7,33.8-10.3,38.2c-4.1,1.3-5.3,3.4-6.5,7.2c-4.9,15.6-10.4,31-15.7,46.4
		c-0.2,0.6-0.3,1.2-0.3,1.3c8.5,1.2,17,2.2,25.3,3.8c3.8,0.7,7.5,2.4,11.1,3.9c5,2.2,6.7,6.1,4.9,10.2c-1.8,4-5.9,5.4-10.8,3.3
		c-19.5-8.4-38.4-7.3-56.5,3.7c-16,9.8-25.3,24.5-27.9,43.1c-0.4,2.9,0.7,6.3,2,9.1c3.8,8.3,8,16.5,12.5,25.7c1.9-1.7,4-3,5.5-4.8
		c3.1-3.9,7-5.1,10.6-2.9c3.6,2.3,4.8,6.7,1.8,10.7c-3.1,4.2-7.3,7.6-12,12.2c3.2,7.5,7,16.5,11,25.3c0.6,1.3,2.4,2.2,3.9,2.8
		c13.3,5.5,26,2.8,38.6-2.6c0.9-0.4,1.6-2.3,1.7-3.6c1.4-12,7.2-21.3,17.4-27.8c7.9-5,15.9-9.8,23.9-14.7c4.8-2.9,8.2-7,7.7-12.8
		c-0.2-2.6-1.8-5.8-3.9-7.3c-1.2-0.9-4.7,0.6-6.7,1.7c-3.7,2.2-7.7,2.2-10.3-0.6c-2.8-3-2.9-7.6,0.7-10.5c3.7-3,8.2-5,13-7.9
		c-1.4-7.3-5.4-14.6-10.6-21.4c-0.9-1.2-2-2.2-2.8-3.4c-2.7-3.7-2.2-7.9,1-10.5c3-2.4,7.3-2.1,10.2,1.1c8,8.8,13.5,18.9,16.5,30.4
		c1.8,6.7,3.1,13.5,6,20c2.1,4.8,1.4,10.7,2.1,16.7c18.7,3.2,26.3,17.4,30.4,34.7c5.2,21.9,5.9,44.2,6.7,66.4
		c0.5,13.8,0.3,27.6,0.4,41.3c0,5.9-2.5,9.2-7,9.4c-4.7,0.2-7.7-3.3-7.8-9.3c-0.2-13.1-0.2-26.2-0.3-39.4c0-4.9,0-9.8,0-15.2
		c-2.6-0.1-4.3-0.3-6-0.3c-12.5,0-24.9-0.4-37.4,0.1c-18,0.6-32.1-5.4-40.4-22.9c-12.3,4.7-24.8,7.3-38.6,5.1c0.9,2.1,1.4,3.6,2,5.1
		c8.8,20.6,17.6,41.3,26.4,61.9c0.6,1.4,1.2,2.7,1.7,4.1c1.6,4.4,0.1,8.2-3.7,9.9c-3.9,1.7-7.8,0.3-9.7-4.1
		c-3.9-8.8-7.6-17.7-11.4-26.6c-16.7-39.2-33.3-78.4-50.2-117.5c-10.7-24.9-29.6-38.5-56.8-40.2c-2.2-0.1-5.2-0.4-6.4-1.8
		c-1.6-2-3.2-5.6-2.4-7.7c0.9-2.3,4.5-5.1,6.7-4.9c8.1,0.5,16.1,2.2,24.2,3.5c1.6,0.3,3.1,0.9,5.3,1.6c0-11.2,0.1-21.9-0.1-32.7
		c0-0.9-1.2-2.2-2.2-2.7c-2.3-1.3-4.8-2.1-7.1-3.3c-4.3-2.3-6-6.4-4.2-10.2c1.8-3.7,5.9-4.8,10.5-3.2c13.6,4.8,27.1,9.5,40.8,14
		c2.6,0.9,5.5,0.9,8.2,1.4c12.6,2.1,21.9-2.7,27.7-13.9c4-7.6,7.2-15.6,10.9-23.7c-4.9-1.8-9.3-2.6-12.8-4.8
		c-5.2-3.2-10.2-7-14.6-11.3c-3.5-3.4-2.8-8.1,0.5-10.8c3.2-2.5,7.4-2.2,10.5,1.4c5.2,6.1,11.9,9,20.2,10.4c1.4-5.5,3-10.8,4-16.2
		c1-5.3,3.8-8.1,9.2-8.5c1.6-0.1,3.2-0.6,4.8-1.1c8.4-3.1,9.7-7.9,3.9-14.7c-2-2.4-4.2-4.6-6.2-7c-8.6-10.1-12.1-21.7-9.9-34.7
		c0.6-3.8-0.3-6.3-3.8-7.2c-7.7-2-15.5-3.7-23.3-5.3c-2.2-0.4-4.6,0-6.9,0c-5.2,0-8.2-2.6-8.4-6.9c-0.2-4.3,2.7-7.5,7.7-7.7
		c11.8-0.7,23.2,0.6,34.2,5.2c1,0.4,2.1,0.9,3.5,1.5c2.7-21.2,0.9-41-11-59.6c-11.3,25.7-33.4,33.5-58,36.8
		c-4.6,0.6-6.6,2.2-8.2,6.5c-7,18.8-18.1,35.2-32,49.7c-4.6,4.7-8.8,4.6-12.9-0.2c-5.1-6-10.7-7.8-16.9-5.6
		c-6,2.2-10.1,8.4-10.3,15.4c-0.3,16.1,11,28.6,27.1,30c1.1,0.1,2.3,0.1,3.4,0.3c4.7,0.8,7.2,3.7,6.9,8c-0.3,4-3.1,6.5-7.7,6.6
		c-10,0.1-19.1-2.7-27.1-8.7c-1.4-1.1-2.8-2.2-4.3-3.4c-4.2,3-8.2,6.1-12.4,9c-4,2.8-8.2,5.3-12.6,8.1c7.9,32.2-2,62.5-10.8,93.7
		c6.9,0,13.4,0,19.9,0c3.3,0,6.6-0.1,9.8,0.1c5,0.2,8.2,3.1,8.2,7.3c0,4.2-3.2,7.3-8.2,7.3c-9.7,0.1-19.4,0.3-29-0.1
		c-4.3-0.2-5.7,1.4-7,5.3c-18.8,57.9-11.3,114.2,10.4,169.6c0.5,1.2,1.1,2.4,1.5,3.6c1.7,4.7,0.3,8.6-3.7,10.3c-3.9,1.7-8,0-9.8-4.6
		c-3.8-9.6-7.6-19.2-10.7-29c-9.5-30.3-13.8-61.3-13-93.1c0.6-23.2,6.8-45.2,13.1-67.3c5.7-20,11.5-40,15.6-60.3
		c2.1-10.5,0.7-21.8,0.8-32.7c0-1.1-0.6-2.2-0.6-2.2c-11.6,2-22.7,5-34,5.5C92.3,225,68.2,210,57.8,185.7
		c-16-37.5,8.8-79.4,49.2-83.2c8.4-0.8,8.4-0.8,9.6-9c6.1-40.7,29.9-66.9,67.9-80.3C196.3,9,209,7.6,221.3,4.9
		c1.4-0.3,2.9-0.6,4.3-0.9C234.5,4,243.3,4,252.2,4z M150.2,202.3c-6.1-10.8-11.9-21-17.6-31.3c-8.8-15.8-15.2-32.3-16.4-50.5
		c-0.2-3.6-2.1-3.7-4.9-3.6c-22.1,1-39.8,16.4-43.1,37.5c-3.5,22.4,9,43.6,30.6,51.3C116.1,211.8,132.8,209,150.2,202.3z M442.5,429
		c-1.2-16-2.6-31.3-8.4-45.8c-4.9-12.4-17.1-16.4-28.6-9.5c-7,4.2-14,8.5-20.9,12.8c-10.5,6.5-14.4,15.3-11.4,26.1
		c2.9,10.6,11,16.4,23.2,16.4c13.6,0,27.2,0,40.8,0C438.8,429,440.4,429,442.5,429z M262.2,280.8c0,10.7,0.3,21.1-0.1,31.5
		c-0.2,5.2,2.1,7.6,6.5,9.4c3.1-13.4,9.7-24.7,18.7-34.7C278.7,284.9,270.6,282.9,262.2,280.8z"/>
	<path class="st0" d="M213.9,424.2c4.3-0.1,6.3,2.7,7.8,6.3c8.2,19.3,16.4,38.5,24.6,57.8c1.2,2.9,2.5,5.7,3.7,8.6
		c1.9,4.9,0.4,9-3.8,10.6c-3.9,1.6-7.7-0.2-9.7-4.9c-8.6-20-17.1-40-25.6-60c-1.2-2.9-2.7-5.6-3.6-8.6
		C205.6,428.9,208.9,424.4,213.9,424.2z"/>
	<path class="st0" d="M310.9,173c-8.9-0.3-16.3-2.9-22.4-8.7c-3.7-3.6-4.2-8.1-1.2-11.3c2.9-3.1,7.1-3.2,10.9,0.2
		c4.6,4.1,9.7,5.6,15.8,4.5c5.4-1,8.9,1.3,9.8,5.7c0.8,4.1-2.1,7.8-7.2,8.9C314.6,172.6,312.4,172.8,310.9,173z"/>
	<path class="st0" d="M345,361.1c-2.8-0.7-5.8-1.1-8.4-2.2c-3.7-1.6-5.3-4.7-4.1-8.8c1.2-3.9,4.8-6,8.9-4.8c4.6,1.3,7.7,0.3,10.3-4
		c2.3-3.8,6.3-4.6,9.8-2.5c3.4,2,4.6,5.8,2.9,9.8C361.2,355.6,353.3,360.6,345,361.1z"/>
	<path class="st0" d="M329.2,397.5c-5.5-0.1-9-3.1-9-7.4c0-4.2,2.9-6.4,8.1-7.4c3.3-0.6,6.5-2.1,9.4-3.7c4.1-2.4,7.9-2.2,10.6,1.1
		c2.5,3.1,2,7.4-1.4,10.5C341.8,395.1,335.6,397.1,329.2,397.5z"/>
</g>
</svg>
