<?xml version="1.0" encoding="utf-8"?>
<!-- Generator: Adobe Illustrator 26.2.1, SVG Export Plug-In . SVG Version: 6.00 Build 0)  -->
<svg version="1.1" id="Layer_1" xmlns="http://www.w3.org/2000/svg" xmlns:xlink="http://www.w3.org/1999/xlink" x="0px" y="0px"
	 viewBox="0 0 512 512" style="enable-background:new 0 0 512 512;" xml:space="preserve">
<style type="text/css">
	.st0{fill:#FFFFFF;}
</style>
<g>
	<path class="st0" d="M-70.7,233.3c-0.9,0.6-2.5,0.4-3.7,0.1c-10.4-2.5-16,1.5-16.4,12.1c0,0.6-0.3,1.2-0.4,1.7
		c-1.8,0.3-3.5,0.4-5,0.9c-13.7,4.3-26.4,3.2-39.7-3.3c-10.9-5.3-23.5-6.9-36.4-10.5c0.7-0.3,1.4-0.4,1.9-0.7
		c15-10.8,26.2-24.2,29.9-43c0.2-1.2,2.1-2.7,3.4-3.1c13.4-3.9,21.3-13,24.5-26.2c3.9-16.1-5.3-31.3-20.6-34.6
		c-2.5-0.5-5-0.6-7.5-0.9c-3.9-40-24.5-65.7-63.6-75.7c0.6-2.3,1.2-4.3,1.6-6.4c1.3-7.3,1.1-14.5-2.5-21.2
		c-4.6-8.7-14.4-13.7-23.9-12.2c-9.2,1.4-16.6,8.7-18.2,17.8c-1.1,6.2,2.2,12.7,7.9,15.8c5.7,3.1,12.3,2.4,16.6-1.8
		c2.6-2.6,3.6-5.5,1.1-8.6c-2.3-2.8-5.1-2.6-8.2-0.8c-1.2,0.7-4.1,1-4.4,0.4c-0.8-1.4-1.3-3.6-0.8-5.1c1.3-3.8,4.5-5.8,8.5-6.1
		c4.8-0.3,9.1,1.6,10.6,6c1.5,4.4,2,9.5,1.5,14.1c-0.8,6.6-1.7,6.8-8.5,6.6c-46.8-1.2-80.2,27.6-85.2,73.7c-0.3,3.2-1.6,3.9-4.5,4.1
		c-12.1,0.9-21.4,8.8-24.2,20.3c-4.3,17.2,6.4,35.9,23.5,40.6c2.9,0.8,4.2,2,4.8,5c2,10.7,7,20,14.3,28.1c0.9,1,1.8,2.1,2.4,2.9
		c-9.3,0-18.3,0.2-27.3-0.1c-3-0.1-6.3-1.3-9-2.7c-8.2-4.4-16.2-9.3-24.4-13.7c-2.5-1.4-3.9-2.6-3.9-5.7c-0.1-5.3-3.2-10-7.9-10.2
		c-8.1-0.3-16.7-0.9-24.2,1.5c-14.2,4.5-16.6,23.6-5,33c1.4,1.1,2.8,2.2,3.9,3.5c4.3,5.2,8.2,10.8,12.8,15.7
		c17,18,35.1,34.8,59.2,43.2c5.9,2,11.7,4.1,17.8,6.3c-0.4,1.5-0.7,2.8-1,4c-3.5,12.2-6.8,24.5-10.5,36.7c-0.7,2.4-2.6,4.7-4.5,6.3
		c-7.6,6.7-16.1,12.5-23.2,19.7c-19.6,20.1-23.1,41.9-11.3,67.4c9.5,20.5,24,37.3,39.8,53.2c2.2,2.2,3.8,5.5,4.4,8.6
		c1.8,8,7.9,13.7,14.9,12.1c16.6-3.9,32-16.8,19.6-39.1c-1.7-3.1-3-6.8-3.4-10.4c-1.2-9.8-1.9-19.8-2.7-28.9
		c39.6,21.3,78.4,20.5,115.9-7.8c-1.4,4-2.9,8-4.8,11.8c-7.7,14.8-3.8,27.1,11,34.7c1.3,0.7,2.6,1.2,4,1.8
		c10.6,4.2,18.1-0.2,20.2-11.3c0.5-2.5,1.8-5.1,3.4-7.1c8.8-11.1,18.3-21.7,26.7-33.1c8.5-11.6,15.6-24.1,19.3-38.2
		c6-23.2-7.7-44.6-31.4-48.2c-8.7-1.3-17.7-1.3-26.5-2.1c-1.6-0.1-3.9-1.1-4.4-2.2c-1.9-4.4-3.1-9.1-4.6-13.8
		c0.7-0.2,1.2-0.4,1.6-0.4c1.6,0.1,3.2,0.3,4.8,0.5c21,2.2,41,0.2,57.9-14.2c3.1-2.6,6.4-5,9.5-7.4c5.9-4.7,11.7-9.5,17.8-14
		c5.5-4.1,9.8-8.8,11.2-15.7C-42.7,241.6-58.8,226.1-70.7,233.3z M-123.9,149.3c2.7,10.4-3.5,21.9-14.6,26.3c0-4.6-0.3-9,0.2-13.4
		c0.1-1.1,2.2-2.7,3.6-2.9c3.9-0.6,6.6-2.1,6.3-6.4c-0.3-4.6-3.6-5.6-7.6-5.4c-0.9,0-1.9,0.1-3.6,0.2c-0.2-3.4-0.5-6.4-0.7-9.4
		C-132.4,137.2-125.9,141.6-123.9,149.3z M-309.6,147.6c-1.9,0-3.6,0-5.3,0c-3.6,0.1-5.8,2.1-6,5.6c-0.1,3.3,1.9,5.7,5.2,5.8
		c4.5,0.2,5.4,2.5,5.1,6.3c-0.2,3.2,0,6.4,0,9.6c-7.4,0.5-16.6-12.3-15.2-22.8c1.2-9.4,7.9-14.9,17.1-13.8
		C-309,141.2-309.3,144.2-309.6,147.6z M-298.8,174.8c0.3-17.6,1.5-35.1,2.5-52.6c0.8-14.5,6.2-27.3,15.5-38.3
		c13.7-16.1,31.6-22.9,52.2-23.7c0.3,0.4,0.6,0.8,1,1.2c-1,0.7-2.8,1.3-3,2.1c-0.4,2.3-1,5.5,0.2,6.9c1.2,1.4,5,2.4,6.6,1.5
		c3.7-2,7.1-5,10.1-8.1c2.1-2.1,3.9-2.8,6.8-2.2c31.5,6.1,53.6,32.6,54.3,64.6c0.3,12.4,1.8,24.8,2.2,37.2
		c0.3,7.1,0.1,14.2-0.9,21.2c-3,22.5-17.5,36.4-36.8,45.8c-35.4,17.2-79.4,7.1-101.1-22.8C-296.3,197.8-299,186.5-298.8,174.8z
		 M-285.9,405.2c-7.6,1.5-10.6,7.2-6.9,13.9c3.8,7,5.5,14.3,5.7,22.2c0.3,10.3,1.3,20.3,6.8,29.8c5.2,9.1,0.1,16.2-12.5,19
		c-0.3-0.3-0.9-0.7-0.9-1.1c-0.3-9.1-6.5-14.5-12.3-20.4c-13.8-13.9-25.9-29.1-34.1-47.1c-8.9-19.4-6-37,8.9-51.9
		c8.2-8.1,17.5-15.2,26.9-22c7.1-5.2,14.9-4.3,22.1,0.8c12.5,8.7,21.4,31.7,18.1,46.6c-0.9,3.8-3.3,6.3-7,7.2
		C-276.1,403.3-281,404.2-285.9,405.2z M-268.6,413.9c1.4-0.7,2.6-1.3,3.9-1.8c7-3.2,11.3-8.8,12.1-16.3
		c2.1-19.6-3.2-37.1-16.9-51.6c-7.7-8.2-17.2-12.3-29-12.5c1.3-0.6,2.6-1.5,4-1.9c18.6-4.4,37.5-6.2,56.6-6.7
		c22.9-0.6,45.8-0.1,68.9,4.6c-21.8,5.4-30.4,20.7-31.2,41.4c-0.7,18.5,6.1,33.3,23.3,42.2C-197.5,428.7-241.4,432.2-268.6,413.9z
		 M-112.4,337.8c15.9,3.5,24.3,18.4,19.1,34.3c-2.9,8.9-6.9,17.9-12.2,25.6c-9.7,14-21,26.9-31.3,40.5c-2.4,3.2-3.8,7.2-5.5,10.9
		c-0.6,1.4-0.7,3-1,4.5c-13.6-1.7-18.5-10.3-12.2-21.3c4.2-7.4,5.6-15.4,6.6-23.5c1.4-11.8,4.2-23.1,10.8-33.2c3-4.7,2.6-9.9-0.7-14
		c-3.1-3.9-7.6-5-10.5-2.6c-3.2,2.6-2.8,5.9,0.4,9.3c-4.1,10.7-7.9,20.8-12.1,31.6c-8.8,2.5-15.8,0.1-21.6-8.1
		c-8.3-11.8-8.3-31.9,0.7-43.2c2.5-3.1,6.3-5.8,10-7.1C-152.5,334.5-132.5,333.3-112.4,337.8z M-57.7,255.7
		c-1.5,2.8-4.1,5.2-6.6,7.4c-3.3,2.8-6.9,5.2-10.3,7.9c-7.9,6.1-15.7,12.4-23.7,18.3c-13,9.6-28.1,7.9-42.9,7.1
		c-1.1-0.1-2.2-0.3-3.4-0.5c-9.1-1.1-12.7-5.1-13-14.4c-0.1-2.7,0.2-5.5,0.2-8.2c0-3.4-1.7-5.6-5.1-5.9c-3.7-0.3-6.3,1.8-6.2,5.3
		c0.1,6.2,0.1,12.6,1.7,18.5c2.4,8.7,6.1,16.9,9.5,26.1c-45.8-8.4-91-8-136.9,0.1c1.6-5.5,3-10.3,4.6-15.1
		c2.3-6.9,4.5-13.8,7.1-20.5c2.5-6.5,3.3-13,2.5-19.9c-0.4-3.9-1.9-6.6-6.1-6.6c-3.6,0-5.3,3-5.6,7.6c-0.4,6.4-1.5,12.9-2.3,20
		c-15.6-4.3-29.4-9.1-41.5-17.5c-14.9-10.4-27.7-23.1-39.5-36.9c-3.8-4.5-7.7-8.8-11.7-13.2c-2.6-2.9-2.7-7.2,0-10.6
		c2.3-2.9,4.9-3,8.1-1c4.2,2.6,4.5,2.4,12-2.6c-2.3,10.3,4.2,13.2,10.9,16.5c7.2,3.5,14.2,7.6,20.9,12c5.4,3.5,10.9,4.9,17.3,5.2
		c13.5,0.6,27,1.7,40.5,3c3.8,0.4,7.6,1.6,11.1,3.2c22,10.1,44.4,12.3,67.9,5.9c11.7-3.2,23.4-0.3,35,1.9
		c13.2,2.4,25.8,6.8,37.9,12.7c4,1.9,9.3,2,13.9,1.5c7.5-0.7,14.9-2.8,22.3-3.9c8.3-1.2,10.7-3.9,10.2-12.5
		c-0.1-0.9,0.1-1.8,0.2-3.5c1.7,1.3,2.7,2.5,3.9,2.8c2,0.4,4.5,0.9,6.1,0.1c2.8-1.5,5.1-3.9,8.1-1
		C-57.7,247.8-55.6,251.6-57.7,255.7z"/>
	<path class="st0" d="M-132.7,93.9c9.8-0.5,18.5-4.3,25.3-11.5c7.1-7.5,6.4-19.4-1-26.5c-7.2-7-19-7.4-26.3-0.5
		c-7,6.7-10.4,15.3-11.3,23.1C-146,88.8-140.9,94.3-132.7,93.9z M-134.3,78.9c2.1-5.1,4.4-10.3,7.6-14.6c1.2-1.6,5.8-2,8.2-1.1
		c2.2,0.8,3.5,3.9,5.4,6.3c-1.6,2.6-2.3,5.1-4,6.2c-4.3,2.6-8.9,4.8-13.6,6.8C-133.5,83.5-135.5,81.7-134.3,78.9z"/>
	<path class="st0" d="M-110.5,95.1c-5.8,0.7-11.9,3-16.8,6.2c-6.2,4.1-6.2,12.2,0.1,16.2c4.9,3.2,11,5.4,16.8,6.1
		c7.6,0.9,13.9-6.3,14-14.1C-96.3,101.5-102.7,94.1-110.5,95.1z M-111.1,112c-2.4-0.1-4.7-1.1-7.1-1.7c0-0.6,0-1.2,0.1-1.9
		c2.4-0.6,4.7-1.6,7.1-1.7c1,0,2,1.7,3.1,2.7C-109,110.3-110.1,112.1-111.1,112z"/>
	<path class="st0" d="M-254.6,198c1.9,9.5,10.7,14.9,21.5,12.5c5.8-1.3,11.3-1.2,17.1,0c10.8,2.3,19.7-3.2,21.5-12.6
		c1.8-9.4-4.3-18-14.8-20.3c-5-1.1-10.2-1.5-15.3-2.3c-5.2,0.7-10.3,1.2-15.3,2.3C-250.5,180-256.5,188.5-254.6,198z M-238.5,189.4
		c4.5-1.1,9.1-1.6,13.7-2.4c4.6,0.7,9.1,1.2,13.5,2.2c3.4,0.7,6.2,2.7,5.2,6.7c-1,3.7-4.3,4.2-7.4,3.2c-7.5-2.2-14.8-2.1-22.3,0.1
		c-3,0.9-6,0.4-7.1-3.1C-244.1,192.3-241.6,190.2-238.5,189.4z"/>
	<path class="st0" d="M-264.9,149.5c2.5-0.2,5.6,0.9,7.6,2.5c3,2.3,5.6,3.4,8.6,0.8c3-2.6,2.5-5.7,0.2-8.6c-3.6-4.8-8.8-6.3-14.8-7
		c-1.1,0.2-2.5,0.4-3.9,0.7c-3.8,0.9-6.8,2.8-6,7.2C-272.2,149.6-268.9,149.7-264.9,149.5z"/>
	<path class="st0" d="M-201.5,145.2c-1.7,2.8-1.6,6.1,1.3,7.6c1.8,1,5.6,1.1,6.8-0.2c3.3-3.3,6.5-3.9,10.9-3.3c1.9,0.2,5.5-2,6-3.8
		c0.5-1.8-1.3-5-3-6.6c-1.6-1.4-4.5-1.4-6.1-1.9C-192.4,137.9-198.1,139.5-201.5,145.2z"/>
	<path class="st0" d="M-226.3,169.9c1.3,0.2,2.7,0,4,0.3c4.9,1.2,8.7-2.5,7.5-7.4c-1-3.9-4.8-6.7-10.2-7.9c-2.8,1.9-6.2,3.3-8,5.8
		c-1.2,1.7-1,5.5,0.2,7.4C-232.1,169.6-228.7,169.5-226.3,169.9z"/>
	<path class="st0" d="M-249.8,124c0.9-0.3,1.9-0.4,2.8-0.5c3.9-0.2,6.2-2.2,6-6c-0.2-4.2-3.2-5.6-7.7-5.7c-1.1,0.2-2.8,0.5-4.5,1.1
		c-3.4,1.2-5.5,3.6-4.3,7.4C-256.3,124-253.5,125-249.8,124z"/>
	<path class="st0" d="M-201.8,123.5c0.9,0,1.9,0.3,2.8,0.6c3.5,0.9,6.2-0.4,7.3-3.7c1.1-3.4-0.5-6-3.8-7.3c-1.8-0.7-3.7-1-4.8-1.3
		c-4.5,0.1-7.7,1.4-7.9,5.6C-208.4,121.6-205.9,123.5-201.8,123.5z"/>
</g>
<g>
	<path class="st0" d="M9,202c1.6-7.5,2.7-15.2,4.8-22.5c22-77.7,113.8-111.9,181.3-67.6c1.5,1,3,1.9,4.3,3.1c2.7,2.7,3.2,6,1,9.2
		c-2.2,3.2-5.3,4-8.9,2.5c-1.3-0.6-2.5-1.5-3.7-2.3c-64.5-42.5-151-4.3-163.1,72.1c-9.6,60.9,36.3,118.1,97.8,121.3
		c19.7,1,39.5,0.5,59.3,0.4c5,0,8.3,1.6,11.5,5.5c19.4,24,43.2,42.5,70.6,56.5c1.3,0.7,2.6,1.2,3.9,2c4.3,2.4,5.7,6.3,3.7,10
		c-2,3.8-6,5.1-10.4,2.7c-9.3-5-18.7-10-27.6-15.7c-18.6-12-35-26.7-49.4-43.5c-1.4-1.6-4.3-2.7-6.5-2.8c-19-0.4-38,0.2-56.9-0.7
		C67.3,329.7,19.6,286.7,11,234c-0.6-3.6-1.3-7.2-2-10.8C9,216.1,9,209.1,9,202z"/>
	<path class="st0" d="M357.9,262.8c9.3,1.8,18.1,3.6,27.5,5.4c-1.3-2.8-2.5-5.3-3.6-7.8c-7-15.3-4.4-31.4,6.9-42.7
		c11.6-11.5,27.6-14,43.1-6.7c3.5,1.6,6.9,3.3,10.5,5.1c6.1-11.2,15.3-17.1,27.9-17c15.6,0,28.2,11.2,31.4,28.6
		c2.7,14.3,1.5,28.5-2.9,42.4c-4.1,12.9-13.7,18.8-27.5,19.9c2.7,4.5,5.1,8.7,7.6,12.9c5.2,8.4,10.1,16.8,11.6,26.7
		c4.1,25.7-3.9,46.8-25.1,62c-21.3,15.3-45.7,23.1-71.5,26.4c-35,4.6-69.2,0.1-102.6-10.9c-2.4-0.8-5.2-2.7-6-4.8
		c-0.8-2-0.2-6,1.3-7.3c1.9-1.6,5.6-2.4,8.2-1.8c10.3,2.3,20.4,5.9,30.8,7.8c41.1,7.6,81.2,5.8,119.2-13.8c3.8-2,7.6-4.3,11.1-6.7
		c21.5-14.6,27.6-41.1,14.4-63.7c-10.8-18.6-22.1-36.9-33.1-55.4c-4-6.7-3.8-10.8,0.6-13.3c4.3-2.5,7.8-0.7,11.7,5.8
		c2.7,4.5,5.4,9.1,8.2,13.6c3.2,5.3,12.3,8.6,18.2,6.9c4.1-1.2,7.2-3.6,8.6-7.7c4.2-12.4,5.4-25.2,2.6-38
		c-2.7-12.3-13.2-18.5-23.2-14.1c-3.1,1.4-5.6,4.2-9.3,7.1c3.6,1.8,5.8,3,8,4.1c4.5,2.4,6.2,6.4,4.3,10.2c-1.9,3.8-6,4.9-10.8,2.7
		c-10.4-5-20.7-10.2-31.2-15.1c-14.6-6.8-30.5,1.5-32.3,17.5c-0.5,4.5,0.9,9.6,2.8,13.8c9.6,21,19.6,41.9,29.5,62.8
		c0.5,1,1.1,2,1.5,3c1.6,4.2,0.2,8.2-3.4,9.8c-3.7,1.7-7.6,0.3-9.7-3.8c-3-5.9-5.7-11.9-8.5-17.8c-2-4.2-4.5-8.3-5.8-12.7
		c-2.3-7.3-7.4-10.5-14.2-12.8c-12.8-4.3-25.8-6.6-39.2-6.6c-2.1,0-4.4,0.9-6.2,2c-20.9,12.3-41.7,24.8-62.5,37.2
		c-1.5,0.9-3,1.9-4.7,2.5c-3.5,1.3-6.4,0.2-8.4-2.9c-2.1-3.3-1.6-6.5,1.3-9.1c1.2-1.1,2.6-1.8,4-2.6c22.6-13.5,45.3-26.9,67.8-40.5
		c8.6-5.2,12.5-13.7,10.9-22.8c-1.6-9.3-8.3-16.7-17.6-18.1c-4.8-0.7-9.9-0.1-14.8,0.5c-5.4,0.6-9-0.9-11.5-6.2
		c-4.4-9.2-14.1-13.2-24.7-10.7c2.4,13.6,1.1,26.9-4.5,41c8.7-4,16.4-7.6,24-11c1.6-0.7,3.6-1.9,4.9-1.5c2.5,0.8,6,2.2,6.7,4.1
		c0.8,2.3-0.6,5.6-1.8,8.2c-0.5,1.2-2.6,1.7-4.1,2.4c-17.2,8-34.2,16.3-51.6,23.8c-12.9,5.5-21.7,14.5-26.7,27.4
		c-1.1,2.8-2.1,5.7-3.6,8.4c-1.9,3.6-5.2,4.9-9,3.4c-3.6-1.4-5.5-4.4-4.3-8.1c5.7-17.1,13.4-33.7,31.2-40.8
		c15.4-6.1,20.4-18.3,24-32.2c2.3-8.7,2.1-17.5-0.6-25.6c-7.6,2.5-14.9,4.9-22.3,7.2c-1.8,0.5-3.8,0.5-5.7,0.5
		c-4.5,0-7.6-2.9-7.8-6.9c-0.2-4,2.8-6.6,7.2-7.6c6.2-1.5,12.2-3.5,18.3-5.4c1-0.3,1.8-1.2,4.3-3.1c-3.3-2.6-6.6-4.5-8.9-7.2
		c-1.9-2.2-3.7-5.4-3.8-8.2c-0.1-12.2-4.4-16.1-16.3-13.9c-4.1,0.8-7.1-0.4-9.5-3.9c-3.1-4.7-6.5-9.2-9.9-13.7c-3-4-3-8,0.2-10.8
		c3.3-2.9,8-2.6,10.9,1.6c5,7.4,10.5,12,20.4,12.8c10.7,0.8,16.8,10,18.6,22.2c0.4,2.6,2,5.1,3.5,7.3c2.9,4.2,6.4,8.1,9.2,12.3
		c1.4,2.2,2.4,3,5.2,2.5c14.9-2.7,27.3,2,36.5,14.2c1.8,2.4,3.5,2.5,6.1,2.3c20.3-2.1,37,9,41.6,27.8
		C363.9,245.1,362.3,254,357.9,262.8z"/>
	<path class="st0" d="M111.1,260c0-20.7,13.7-34.6,29.5-34.1c4.4,0.1,7.2,2.5,7.5,6.5c0.3,4-2,6.8-6.3,7.8
		c-11.2,2.4-15.8,6.4-16.2,14.5c-0.6,10,5.6,19,15.2,22c11.1,3.5,20.4-2.2,22.2-13.8c0.9-5.7,3.7-8.4,8.2-7.8
		c4.4,0.6,6.7,4.3,6.1,9.8c-1.4,12-7.6,20.8-19,25.1c-12.5,4.8-24.1,2-34.2-6.3C115.4,276.5,111.2,267,111.1,260z"/>
	<path class="st0" d="M187.9,202.1c-2.6-1-5.9-1.4-7.6-3.2c-1.5-1.6-2.1-5-1.7-7.3c0.6-3.5,3.8-5.1,7.3-4.8c5.7,0.5,9-1.8,10.8-7.2
		c1.5-4.5,5.1-6.3,8.9-5.1c3.9,1.3,5.7,4.7,4.8,9.2C208.7,193.6,198.9,201.4,187.9,202.1z"/>
</g>
</svg>
